<svg width="24" height="24" viewBox="0 0 24 24" fill="none" xmlns="http://www.w3.org/2000/svg">
    <path
        d="M2.8928 19.0933C2.50227 19.4838 2.50227 20.117 2.8928 20.5075C3.28332 20.898 3.91648 20.898 4.30701 20.5075L3.5999 19.8004L2.8928 19.0933ZM8.3999 15.0004L9.10701 14.2933C8.71648 13.9028 8.08332 13.9028 7.69279 14.2933L8.3999 15.0004ZM10.7999 17.4004L10.0928 18.1075C10.4833 18.498 11.1165 18.498 11.507 18.1075L10.7999 17.4004ZM16.1999 12.0004L16.907 11.2933C16.5165 10.9028 15.8833 10.9028 15.4928 11.2933L16.1999 12.0004ZM20.2928 17.5075C20.6833 17.898 21.3165 17.898 21.707 17.5075C22.0975 17.117 22.0975 16.4838 21.707 16.0933L20.9999 16.8004L20.2928 17.5075ZM3.5999 19.8004L4.30701 20.5075L9.10701 15.7075L8.3999 15.0004L7.69279 14.2933L2.8928 19.0933L3.5999 19.8004ZM8.3999 15.0004L7.69279 15.7075L10.0928 18.1075L10.7999 17.4004L11.507 16.6933L9.10701 14.2933L8.3999 15.0004ZM10.7999 17.4004L11.507 18.1075L16.907 12.7075L16.1999 12.0004L15.4928 11.2933L10.0928 16.6933L10.7999 17.4004ZM16.1999 12.0004L15.4928 12.7075L20.2928 17.5075L20.9999 16.8004L21.707 16.0933L16.907 11.2933L16.1999 12.0004ZM5.9999 2.40039V3.40039H17.9999V2.40039V1.40039H5.9999V2.40039ZM21.5999 6.00039H20.5999V18.0004H21.5999H22.5999V6.00039H21.5999ZM17.9999 21.6004V20.6004H5.9999V21.6004V22.6004H17.9999V21.6004ZM2.3999 18.0004H3.3999V6.00039H2.3999H1.3999V18.0004H2.3999ZM5.9999 21.6004V20.6004C4.56396 20.6004 3.3999 19.4363 3.3999 18.0004H2.3999H1.3999C1.3999 20.5409 3.45939 22.6004 5.9999 22.6004V21.6004ZM21.5999 18.0004H20.5999C20.5999 19.4363 19.4358 20.6004 17.9999 20.6004V21.6004V22.6004C20.5404 22.6004 22.5999 20.5409 22.5999 18.0004H21.5999ZM17.9999 2.40039V3.40039C19.4358 3.40039 20.5999 4.56445 20.5999 6.00039H21.5999H22.5999C22.5999 3.45988 20.5404 1.40039 17.9999 1.40039V2.40039ZM5.9999 2.40039V1.40039C3.45939 1.40039 1.3999 3.45988 1.3999 6.00039H2.3999H3.3999C3.3999 4.56445 4.56396 3.40039 5.9999 3.40039V2.40039ZM9.5999 7.80039H8.5999C8.5999 8.24222 8.24173 8.60039 7.7999 8.60039V9.60039V10.6004C9.3463 10.6004 10.5999 9.34679 10.5999 7.80039H9.5999ZM7.7999 9.60039V8.60039C7.35807 8.60039 6.9999 8.24222 6.9999 7.80039H5.9999H4.9999C4.9999 9.34679 6.2535 10.6004 7.7999 10.6004V9.60039ZM5.9999 7.80039H6.9999C6.9999 7.35856 7.35807 7.00039 7.7999 7.00039V6.00039V5.00039C6.2535 5.00039 4.9999 6.25399 4.9999 7.80039H5.9999ZM7.7999 6.00039V7.00039C8.24173 7.00039 8.5999 7.35856 8.5999 7.80039H9.5999H10.5999C10.5999 6.25399 9.3463 5.00039 7.7999 5.00039V6.00039Z"
        fill="#242424" />
</svg>